<svg xmlns="http://www.w3.org/2000/svg" version="1.1" width="600px" height="600px" xlink="http://www.w3.org/1999/xlink" style="overflow:hidden!important;"><g id="svga-group-wrapper" transform="scale(3 3)"><g id="svga-group-backs-single"><path id="SvgjsPath3532" d="M225 225H-25V-25h250V225z" fill="#ecf0f1" stroke-width="none" opacity="1"></path></g><g id="svga-group-subwrapper" ><g id="svga-group-hair-back" ><path id="SvgjsPath3501" d="M41.279 215.266c-0.033-0.044-0.063-0.094-0.095-0.14 3.872-1.418 107.984 7.4 115.031 6.323 -0.001 0.108-0.007 0.217-0.007 0.325 0.282-0.064 0.24-0.075 0.254-0.359 0.259-0.032 1.051-0.167 0.027-0.457 3.485-63.467 43.554-53.333 20.529-111.343 -5.448-13.536-5.042-26.26-6.357-42.117 -1.84 1.797-1.238 11.106-3.489 28.325 17.078 53.526 2.414 51.246-11.503 76.872 -4.604 8.467-8.295 17.095-9.091 26.65 -22.673-39.208-16.05-38.328-6.981-62.078 -1.56 2.201-7.898 6.916-13.709 8.025 14.211-10.797 22.683-10.831 22.98-76.708 -13.031-6.03-24.886-17.239-32.2-29.8 -9.476 19.65-26.281 27.875-47.75 31.14 -5.35 2.72-10.92 5-16.55 7.08 -0.476 27.679 6.753 46.579 21.26 66.64 -5.091-3.645-10.294-9.649-13.96-14.758 4.4 8.811 10.944 16.104 9.16 31.867 -1.972 17.313-18.629 29.105-18.629 51.372 -16.264-25.388-21.752-14.633-17.979-42.312 -6.177-10.806-9.18-18.142-11.68-25.979 -0.605-0.005-1.578 0.138-2.133 0.204C11.333 170.695 21.465 190.498 41.279 215.266z" fill="#1b141c" stroke-width="none" opacity="1"></path><path id="SvgjsPath3502" d="M142.489 227.847h-90V97.24h90V227.847z" fill="#0c080c" stroke-width="none" opacity="1"></path><path id="SvgjsPath3503" d="M156.49 220.958c3.485-63.467 43.554-53.333 20.529-111.343 -4.317-10.726-4.958-20.946-5.692-32.615 -0.213 0-0.427 0-0.641 0 0.342 11.384 0.54 21.512 3.883 31.266 20.946 61.4-17.667 48.849-18.343 112.635 -4.423-0.602-111.114-7.244-115.042-5.775 -14.061-20.667-24.449-40.831-22.283-63.372 -0.668-0.594-1.228-1.297-1.759-2.028 -4.286 23.862 5.757 42.566 24.137 65.541 -0.033-0.044-0.063-0.094-0.095-0.14 3.872-1.418 107.984 7.4 115.031 6.323 -0.001 0.108-0.007 0.217-0.007 0.325 0.282-0.064 0.24-0.075 0.254-0.359C156.722 221.383 157.514 221.248 156.49 220.958z" fill="#000000" stroke-width="none" opacity="1"></path></g><g id="svga-group-humanbody-single"><path id="SvgjsPath2761" d="M190.858 199.866c-6.008-10.158-13.474-11.973-19.628-13.936 -6.323-2.016-19.346-3.178-26.449-4.6 -6.86-1.373-23.153-5.789-23.339-13.488 -0.192-8.066 4.291-40.09 4.291-40.09H74.005c0 0 4.487 32.023 4.294 40.09 -0.184 7.699-16.48 12.115-23.341 13.488 -7.104 1.422-20.125 2.584-26.448 4.6 -6.156 1.963-13.624 3.777-19.632 13.936 -3.644 6.16-6.008 16.133-6.008 27.133h194C196.869 215.999 194.509 206.026 190.858 199.866z" fill="#b36a33" stroke-width="none" opacity="1" stroke="none"></path><path id="SvgjsPath2762" d="M121.442 167.843c2.495 10.929 18.165 13.698 26.293 15.325 21.909 4.379 33.772 5.134 42.297 19.539 2.903 4.916 5.459 15.864 5.962 24.153 1.835 0.291 0.531-17.432-5.136-26.994 -9.742-16.472-29.089-15.135-46.077-18.535C137.921 179.958 121.628 175.542 121.442 167.843L121.442 167.843zM78.558 167.843c-0.186 7.699-16.479 12.115-23.339 13.488 -16.988 3.4-36.335 2.063-46.077 18.535 -5.667 9.563-6.971 27.285-5.136 26.994 0.503-8.289 3.059-19.237 5.962-24.153 8.524-14.405 20.388-15.16 42.297-19.539C60.393 181.541 76.063 178.771 78.558 167.843L78.558 167.843z" fill="#c27e4b" stroke-width="none" opacity="1" stroke="none"></path><path id="SvgjsPath2763" d="M51.206 189.513c0 0 28.641 0.299 33.473 1.885 2.314 0.758 8.372 5.633 8.372 5.633s-6.556-3.17-8.658-3.758C79.51 191.909 51.206 189.513 51.206 189.513zM99.795 199.999c2.053-0.041 7.887-3.799 7.887-3.799s-5.574 2.059-7.342 2.16c-1.491 0.086-6.366-1.238-6.366-1.238S98.112 200.032 99.795 199.999zM117.008 192.757c6.75-1.818 29.786-3.23 29.786-3.23s-23.791-0.516-30.51 1.725c-2.252 0.752-7.562 5.16-7.562 5.16S114.786 193.354 117.008 192.757z" fill="#a4581e" stroke-width="none" opacity="1" stroke="none"></path><path id="SvgjsPath2764" d="M190.858 199.866c-9.741-16.471-29.122-15.142-46.077-18.535 -6.86-1.373-23.153-5.789-23.339-13.488 -0.192-8.066 4.291-40.09 4.291-40.09H74.005c0 0 4.487 32.023 4.294 40.09 -0.184 7.699-16.48 12.115-23.341 13.488 -7.104 1.422-20.125 2.584-26.448 4.6 -6.156 1.963-13.624 3.777-19.632 13.936 -3.644 6.16-6.008 16.133-6.008 27.133h194C196.869 215.999 194.509 206.026 190.858 199.866z" fill="none" stroke="#853900" stroke-width="1.5" opacity="1"></path></g><g id="svga-group-chinshadow-single"><path id="SvgjsPath2917" d="M100.002 171.005c7.489 0 14.565-1.857 20.808-4.958 0.274-8.445 2.988-28.94 3.95-35.996 -4.783-0.815-10.15-1.364-15.722-1.647H90.966c-5.673 0.289-11.134 0.853-15.982 1.691 0.963 7.063 3.646 27.319 3.942 35.82C85.233 169.097 92.406 171.005 100.002 171.005z" fill="url(#SvgjsLinearGradient2918)" opacity="1"></path></g><g id="svga-group-clothes-single" ><path id="SvgjsPath3516" d="M145.471 178.022c-1.061 15.897 0.707 33.905 0.707 33.905 -7.768-3.362-22.639-15.503-26.666-16.49 -4.061 2.169-6.393 2.106-7.4 2.359 -5.947 0.997-13.61 2.537-20.636-1.041 -1.868 0.035-3.905 0.708-5.905 2.207 -12.993 9.737-21.868 10.612-28.634 15.292 1.635-27.44-0.969-27.127-1.584-36.505 -1.19-0.449-1.364-0.623-1.995-1.753 -10.244 3.183-30.212 6.022-40.19 15.947 -8.894 8.844-11.768 22.784-10.309 35.422 54.74-0.592 138.876-1.306 193.888-0.761C197.551 186.068 175.945 185.906 145.471 178.022z" fill="#09aac5" stroke-width="none" opacity="1"></path><path id="SvgjsPath3517" d="M119.089 197.568c-2.052-0.513-3.667-0.068-5.207-0.069 1.284-0.237 3.127-0.725 5.63-2.062 3.544 0.869 18.16 11.9 26.269 16.461C136.602 209.54 127.018 200 119.089 197.568zM94.757 198.053c-1.103-0.329-2.201-0.746-3.282-1.297 -1.868 0.035-3.905 0.708-5.905 2.207 -10.305 7.723-21.76 12.23-27.887 15.123C88.137 205.707 83.056 198.188 94.757 198.053z" fill="#009cb6" stroke-width="none" opacity="1"></path><path id="SvgjsPath3518" d="M53.455 176.17C24.339 183.745-1.083 196.935 3 227.364c-0.047 0.001-0.096 0.002-0.143 0.002 -0.554-4.797-0.479-9.78 0.308-14.603 1.287-7.883 4.483-15.332 10.001-20.819 9.978-9.925 29.946-12.765 40.19-15.947C53.392 176.062 53.422 176.111 53.455 176.17zM145.471 178.022c-0.009 0.125-0.016 0.251-0.023 0.376 23.922 8.212 47.547 10.712 50.868 48.203 0.142 0.001 0.29 0.003 0.431 0.004C197.551 186.068 179.202 186.402 145.471 178.022z" fill="#1fbad4" stroke-width="none" opacity="1"></path><path id="SvgjsPath3519" d="M197.279 226.896c0 0-28.002 0.37-46.59 0.479 -12.59 0.08-25.181 0.15-37.771 0.2 -81.177 0.293-83.75-0.07-110.65-0.07 0 0-0.465-2.604-0.57-5.159 -1.659-40.352 30.275-40.577 51.729-46.788 0.274-0.079 0.565 0.04 0.704 0.29 0.333 0.6 0.916 1.025 1.106 1.12 0.01 0.33 0.03 0.65 0.05 0.979 -0.794-0.299-0.91-0.445-1.815-1.385 -0.084-0.087-0.178-0.162-0.292-0.121 -1.901 0.687-4.172 0.994-6.172 1.624 4.455 6.695 4.095 7.949 10.01 14.95 0.008 0.088 0.07 1.313 0.08 1.83 -5.761-5.881-7.017-9.274-11.08-16.48 -16.972 5.388-33.363 6.301-40.88 27.08 -2.474 6.846-2.944 14.967-2.15 21.98 59.171-0.638 134.022-1.259 193.7-0.761 0.3-14.363-3.066-30.22-15.511-37.189 -4.957-2.779-9.965-3.909-28.04-9 -1.481 3.65-5.049 8.293-7.789 11.17 -0.021-0.59-0.04-1.19-0.051-1.78 1.498-1.947 5.708-7.463 6.71-9.71 -2.14-0.6-4.27-1.21-6.399-1.84 0-0.28 0-0.55 0-0.82 7.963 1.854 28.813 6.277 35.64 9.931C195.5 195.033 199.143 211.619 197.279 226.896zM119.6 195.686c-0.221-0.09-0.44-0.15-0.66-0.181 -2.352 0.574-3.164 1.221-7.11 2 -3.127 0.617-10.333 1.927-17.07 0.211 0.036 0.098 0 0 0 0 -1.023-0.566-2.024-0.729-3.24-0.7C99.242 201.4 113.793 198.262 119.6 195.686zM130.699 202.775c-0.271-0.19-0.53-0.38-0.79-0.58 -17.37 8.853-32.546 8.652-50.1 4.74 -1.11-0.29-2.21-0.61-3.3-0.95 -0.34 0.18-0.69 0.36-1.05 0.52C93.449 213.814 114.174 212.888 130.699 202.775z" fill="#008197" stroke-width="none" opacity="1"></path><path id="SvgjsPath3520" d="M56.979 214.415c1.692-28.206-2.607-30.744-1.55-42.351 3.373-1.974 6.717-2.578 8.406-4.544 8.052-9.419 7.112-13.441 12.346-15.903 1.041 4.357 1.672 14.578 1.678 14.713 3.949 11.71 6.64 16.713 9.878 21.422 1.879 2.727 5.893 6.911 6.854 9.761 -1.93-0.97-5.274-0.973-8.979 1.61 -6.009 4.147-3.838 5.138-16.357 9.679C64.814 210.398 60.982 212.567 56.979 214.415zM145.199 189.736c-0.004-0.288 0.321-14.813 0.357-16.021 -6.442-2.361-13.296-20.229-22.095-21.438 -2.597 16.247 0.486 10.404-7.249 30.08 -1.912 4.86-2.634 6.697-2.988 14.756 0.197-0.053 0.541-0.146 0.557-0.146l0 0c2.67-0.704 3.561-1.123 5.178-1.56 0.83 0.169 2.208 0.877 2.463 1.081l-0.006-0.011c7.472 3.991 14.442 11.187 24.802 15.61C146.427 208.185 145.199 198.497 145.199 189.736z" fill="#ffffff" stroke-width="none" opacity="1"></path><path id="SvgjsPath3521" d="M114.866 196.669c-0.33 0.094-0.683 0.191-1.085 0.298 -0.016 0-0.359 0.093-0.557 0.146 0.354-8.059 1.076-9.896 2.988-14.756 7.735-19.676 4.652-13.833 7.249-30.08 1.764 0.242 3.448 1.283 5.068 2.799 -1.115 8.624-3.485 15.436-6.941 23.212 4.048-2.29 8.441-5.093 12.411-7.287C125.745 178.43 117.495 185.863 114.866 196.669zM94.591 197.513c-0.961-2.85-4.976-7.034-6.854-9.761 -3.238-4.709-5.929-9.712-9.878-21.422 -0.006-0.135-0.638-10.355-1.678-14.713 -3.31 1.557-3.032 2.683-5.24 6.458 1.777 9.193 5.37 15.037 10.465 22.681C77.063 177.893 71 173 65 170c10.107 7.58 17.375 17.29 24.197 27.335C91.411 196.658 93.313 196.87 94.591 197.513z" fill="#dedbd4" stroke-width="none" opacity="1"></path><path id="SvgjsPath3522" d="M87.819 187.695c-4.936-7.178-7.181-13.699-9.86-21.37 0 0-0.438-10.561-1.51-14.85 -5.393 2.474-4.59 5.505-12.69 14.979 -2.291 2.666-5.4 3.784-8.43 5.601 -0.777 8.533 1.619 15.055 1.77 22.79 0.218 5.698 0.193 12.783-0.23 19.729 4.04-1.853 7.922-4.063 12.42-5.68 12.532-4.546 10.38-5.548 16.38-9.69 3.873-2.699 7.279-2.524 9.09-1.489C93.939 194.836 89.754 190.504 87.819 187.695zM74.019 205.915c-7.949 3.13-5.769 1.673-16.68 7.931 3.049-21.622-1.58-31.625-1.58-41.37 3.139-1.624 6.156-2.509 8.47-5.16 8.667-9.967 6.861-12.405 11.66-15.34 0.3 2.859 0.54 5.74 0.69 8.63 0.512 10.227-0.853 3.241 3.17 13.78 5.946 15.57 11.621 17.19 14.31 22.569C86.424 193.63 80.99 203.591 74.019 205.915zM145.299 189.735c-0.005-0.397 0.353-16.004 0.36-16.09 -6.451-2.231-13.624-20.399-22.579-21.48 -0.757 4.655-1.651 14.73-1.651 14.73 -6.107 20.451-7.73 16.906-8.31 30.35 0.003 0 0.646-0.179 0.688-0.182 2.547-0.672 3.516-1.094 5.133-1.559 0.254 0.052 0.671 0.179 0.92 0.29 0.032 0.016 1.544 0.762 1.51 0.771 7.519 4.019 14.47 11.234 24.94 15.67C146.558 208.415 145.299 198.592 145.299 189.735zM139.089 207.216c-7.011-4.202-11.864-9.296-19.3-12.33 -2.013-0.85-4.606 0.879-6.38 2.18 0.979-8.548 0.644-6.609 2.46-11.521 8.37-22.729 6.028-9.863 7.99-32.89 7.676 2.56 14.698 19.021 20.99 21.05 -2.021 23.913 0.69 32.396 1.01 37.82C143.52 210.266 141.359 208.575 139.089 207.216z" fill="#afa9a0" stroke-width="none" opacity="1"></path></g><g id="svga-group-head" ><g id="svga-group-ears-left" style="display:none;"><path id="SvgjsPath2983" d="M47.218 82.634c-0.967-2.31-8.082-5.576-11.21-5.06 -3.538 0.583-4.838 4.047-4.369 6.612 1.103 6.025 3.996 8.563 5.296 13.268 1.096 3.97 3.433 6.253 4.588 7.938 1.42 2.07 2.73 6.818 3.023 7.512 0.463 1.096 2.103 3.757 5.002 3.619 3.333-0.16 7.545-6.211 7.614-7.557C57.544 101.679 49.733 88.647 47.218 82.634z" fill="#b36a33" stroke="#853900" stroke-width="1.5" opacity="1"></path><path id="SvgjsPath2984" d="M47.953 107.204c0 0 0.429-0.995-0.094-1.879 -0.672-1.134-2.423-3.219-2.821-4.467 -0.325-1.021-0.16-3.2-0.213-4.266 -0.094-1.886-1.492-3.177-1.927-4.26 -2.914-7.238-6.792-11.723-9-12.656 -1.633 3.705-0.339 6.416 1.94 12.116 -1.375-7.748-0.054-10.17-0.054-10.17S39.803 84.842 41.786 92c0.359 1.292-1.111 3.988-0.83 5.299 0.352 1.646 4.184 4.83 5.257 6.163C47.049 104.5 47.953 107.204 47.953 107.204z" fill="#853900" stroke-width="none" opacity="1"></path></g><g id="svga-group-ears-right" style="display:none;"><path id="SvgjsPath2985" d="M152.52 82.634c0.967-2.31 8.082-5.576 11.211-5.06 3.539 0.583 4.838 4.047 4.369 6.612 -1.104 6.025-3.996 8.563-5.297 13.268 -1.096 3.97-3.434 6.253-4.588 7.938 -1.42 2.07-2.73 6.818-3.023 7.512 -0.463 1.096-2.104 3.757-5.002 3.619 -3.332-0.16-7.545-6.211-7.613-7.557C142.193 101.679 150.006 88.647 152.52 82.634z" fill="#b36a33" stroke="#853900" stroke-width="1.5" opacity="1"></path><path id="SvgjsPath2986" d="M151.785 107.204c0 0-0.43-0.995 0.094-1.879 0.672-1.134 2.424-3.219 2.82-4.467 0.324-1.021 0.16-3.2 0.215-4.266 0.094-1.886 1.49-3.177 1.926-4.26 2.914-7.238 6.793-11.723 9-12.656 1.633 3.705 0.338 6.416-1.939 12.116 1.375-7.748 0.053-10.17 0.053-10.17s-4.018 3.219-6.002 10.376c-0.357 1.292 1.111 3.988 0.83 5.299 -0.352 1.646-4.184 4.83-5.256 6.163C152.689 104.5 151.785 107.204 151.785 107.204z" fill="#853900" stroke-width="none" opacity="1"></path></g><g id="svga-group-faceshape-wrap" ><g id="svga-group-faceshape-single" ><path id="SvgjsPath2914" d="M100.002 0.867C66.381 0.814 39.186 27.899 39.134 61.374c-0.008 5.316 0.669 10.473 1.953 15.389l0.004 0c0.011 0.053 8.845 35.17 15.375 53.208 5.578 15.41 23.021 29.3 43.536 29.3 20.514 0 37.958-13.89 43.537-29.3 6.529-18.038 15.362-53.155 15.374-53.208l0.005 0c1.283-4.916 1.961-10.072 1.952-15.389C160.819 27.899 133.623 0.814 100.002 0.867z" fill="#b36a33" stroke-width="none" opacity="1"></path><path id="SvgjsPath2915" d="M146.769 22.635c7.449 10.15 11.881 22.804 11.902 36.538 0.008 5.316-0.644 10.473-1.884 15.389l-0.005 0c-0.012 0.053-8.522 35.17-14.816 53.208 -5.376 15.409-22.191 29.3-41.963 29.3 -19.773 0-36.585-13.891-41.961-29.3 -6.296-18.038-14.809-53.155-14.82-53.208l-0.004 0c-1.237-4.916-1.891-10.072-1.882-15.389 0.021-13.73 4.448-26.381 11.895-36.529 -8.781 10.491-14.072 23.989-14.095 38.729 -0.008 5.316 0.669 10.473 1.953 15.389l0.004 0c0.011 0.053 8.845 35.17 15.375 53.208 5.578 15.41 23.021 29.3 43.536 29.3 20.514 0 37.958-13.89 43.537-29.3 6.529-18.038 15.362-53.155 15.374-53.208l0.005 0c1.283-4.916 1.961-10.072 1.952-15.389C160.848 46.629 155.554 33.127 146.769 22.635z" fill="#ab6128" stroke-width="none" opacity="1"></path><path id="SvgjsPath2916" d="M100.002 0.867C66.381 0.814 39.186 27.899 39.134 61.374c-0.008 5.316 0.669 10.473 1.953 15.389l0.004 0c0.011 0.053 8.845 35.17 15.375 53.208 5.578 15.41 23.021 29.3 43.536 29.3 20.514 0 37.958-13.89 43.537-29.3 6.529-18.038 15.362-53.155 15.374-53.208l0.005 0c1.283-4.916 1.961-10.072 1.952-15.389C160.819 27.899 133.623 0.814 100.002 0.867z" fill="none" stroke="#853900" stroke-width="1.5" opacity="1"></path></g></g><g id="svga-group-mouth-single" ><path id="SvgjsPath2945" d="M100.002 141.248c-4.158 0-5.133-3.404-5.133-3.404 5.5 2.12 10.267-0.146 10.267-0.146S103.659 141.248 100.002 141.248z" fill="url(#SvgjsLinearGradient2946)" opacity="1"></path><path id="SvgjsPath2949" d="M86.803 131.94c2.756-0.951 6.973-2.692 9.166-2.789 1.133-0.052 2.351 0.87 3.574 1.165 0.851 0.206 3.264-1.156 4.13-1.165 2.272-0.024 7.06 1.838 9.502 2.789 0.135 0.054 0 0 0 0s-5.789 6.953-13.185 6.953C91.618 138.894 86.803 131.94 86.803 131.94S86.666 131.989 86.803 131.94z" fill="#a96a47" stroke="#9a5731" stroke-width="0.75" opacity="1"></path><path id="SvgjsPath2950" d="M113.541 131.736c-0.048-0.164-0.482-0.367-0.653-0.359 -0.311 0.017-0.672 0.396-1.313 0.41 -0.742 0.018-4.679 0.61-5.736 0.54 -2.129-0.142-3.824 0.666-5.848 0.666 -2.025 0-3.868-0.882-5.996-0.739 -1.057 0.072-4.847-0.448-5.591-0.467 -0.643-0.015-0.892-0.411-1.166-0.464 -0.192-0.036-0.663 0.166-0.757 0.338 -0.083 0.149 0.092 0.67 0.209 0.794 0.285 0.297 1.136 0.242 1.698 0.256 0.777 0.017 4.577 0.538 5.65 0.466 2.081-0.141 3.936 0.822 5.952 0.822s3.725-0.889 5.806-0.748c1.071 0.071 5.015-0.524 5.793-0.54 0.563-0.014 1.366-0.061 1.654-0.292C113.379 132.311 113.59 131.904 113.541 131.736z" fill="#7b350f" stroke-width="none" opacity="1"></path><path id="SvgjsPath2951" d="M99.989 137.352c-3.37 0-6.645-1.153-9.241-3.305 1.307-0.072 2.652-0.277 3.961-0.22 1.613 0.07 3.144 0.707 4.756 0.813 1.742 0.116 3.358-0.487 5.064-0.694 1.422-0.17 3.664-0.674 5.091-0.622C107.068 135.28 103.244 137.352 99.989 137.352zM104.562 131.739c1.314-0.037 3.414-0.532 4.724-0.437 -1.405-0.759-3.657-0.941-5.243-1.247 -1.366-0.266-2.738 0.791-4.081 0.968 -1.514 0.199-2.65-1.239-4.119-1.288 -1.593 0.017-3.233 0.991-4.634 1.65 1.284-0.034 2.607-0.176 3.886-0.012 1.566 0.199 3.069 0.817 4.655 0.87C101.373 132.299 102.939 131.782 104.562 131.739z" fill="#b87f60" stroke-width="none" opacity="1"></path><path id="SvgjsPath2952" d="M99.941 136.4c-2.029 0-4.007-0.702-5.707-2.002 0.38-0.038 0.764-0.067 1.133-0.067 0.117 0 0.234 0.004 0.351 0.011 0.609 0.032 1.209 0.207 1.846 0.393 0.618 0.178 1.256 0.363 1.923 0.42 0.132 0.01 0.264 0.015 0.395 0.015 0.819 0 1.596-0.204 2.348-0.4 0.477-0.125 0.928-0.243 1.392-0.313 0.253-0.04 0.527-0.059 0.837-0.059 0.268 0 0.544 0.015 0.818 0.036C103.862 135.485 102.03 136.4 99.941 136.4z" fill="#c8977c" stroke-width="none" opacity="1"></path></g><g id="svga-group-eyes-left" ><g id="svga-group-eyesback-left"><path id="SvgjsPath3425" d="M86.929 86.347c0.161 0.571 0.257 1.157 0.257 1.758 0 1.481-0.523 2.881-1.44 4.135 -4.077 0.038-16.966 0.706-18.935-0.303 -2.813-1.441-5.323-7.369-5.506-8.827C71.3 77.36 78.675 78.479 86.929 86.347z" fill="url(#SvgjsRadialGradient3426)" opacity="1"></path></g><g id="svga-group-eyesiriswrapper-left" transform="translate(0 0.5)"><g id="svga-group-eyesiriscontrol-left" ><g id="svga-group-eyesiris-left" ><path id="SvgjsPath3483" d="M83.5 87.001c0 4.693-3.806 8.498-8.5 8.498s-8.5-3.805-8.5-8.498c0-4.697 3.806-8.502 8.5-8.502S83.5 82.304 83.5 87.001z" fill="#4d3623" stroke="#1f1105" stroke-width="0.5" opacity="1"></path><path id="SvgjsPath3484" d="M70.058 90.974c1.241-0.103 0.142-0.434 0.142-0.434 -0.613-0.331-1.768-0.839-1.768-1.306 0-1.461 2.002-1.839-0.048-2.416 -2.13-1.955 1.653-1.914 1.625-1.98 -1.381-3.366 0.423-1.518 1.183-2.512 2.816-3.682 0.785 0.378 2.314 0 0.554-0.136-1.105-2.169 0.048-1.884 0.763 0.187 0.937 0.821 0.937 0.821 0.557-0.109 1.428-0.966 1.428-0.966 1.061 0.32 1.806 1.827 1.478 1.545 0.522-0.063 1.252-0.313 1.822-0.483 0 0 0.1-0.338 0.196-0.047 1.3 3.77 4.652 3.5 0.792 4.589 0 0-0.249 0 0.542 0.627 3.839 3.066-2.978 2.117 0.638 3.527 0.147-0.146-2.167 1.368-2.167 1.787 0 0.71-1.477 2.576-2.757 1.841 -0.714-0.408-0.823 0.85-1.243 0.269 -0.823-1.138-2.467-0.049-1.859-1.095 0.898-0.737-0.926 0.289-1.28 0.289 -1.172 0 1.534-3.942 5.516-1.013 1.165 0.853-1.224-2.03 0.886-2.03 0.211 0.069 0.148-0.739 0.148-0.966 -1.098-0.215 1.969-0.005 1.969-1.788 0.193 0.039 0.721-0.495-2.316 0 0 0-0.097-1.063-0.048-1.256 0.156-0.62 1.72-0.422 1.28-1.063 -0.001-0.001-1.132-2.272-1.132-2.272 -3.645-0.586-1.562-0.952-3.841-0.483 -0.108 0.535-4.881 2.811-4.729 3.866 0.142 0.995 2.997 1.328 0.295 3.091C74.157 96.989 67.118 89.06 70.058 90.974z" fill="#5c4633" stroke-width="none" opacity="1" stroke="none"></path><path id="SvgjsPath3485" d="M75,79.562l0.243,6.223l2.603-5.656l-2.158,5.84l4.572-4.229l-4.229,4.57l5.842-2.157l-5.655,2.604l6.222,0.242l-6.222,0.242l5.655,2.604l-5.842-2.157l4.229,4.57l-4.572-4.229l2.158,5.84l-2.603-5.656L75,94.437l-0.243-6.223l-2.604,5.656l2.156-5.84l-4.57,4.229l4.229-4.57l-5.842,2.157l5.655-2.604l-6.219-0.242l6.219-0.242l-5.655-2.604l5.842,2.157l-4.229-4.57l4.57,4.229l-2.156-5.84l2.604,5.656L75,79.562z" fill="#4d3623" stroke="#3e2816" stroke-width="0.5" opacity="1"></path><path id="SvgjsPath3486" d="M76.128,81.428l-0.764,4.697l2.808-3.841l-2.501,4.047l4.065-2.476l-3.859,2.783l4.702-0.73l-4.632,1.092l4.626,1.125l-4.699-0.762l3.842,2.808l-4.05-2.5l2.476,4.064l-2.783-3.86l0.73,4.702l-1.092-4.632l-1.126,4.625l0.764-4.697l-2.811,3.841l2.504-4.048l-4.064,2.476l3.86-2.783l-4.702,0.73l4.631-1.093l-4.625-1.125l4.697,0.761l-3.842-2.808l4.05,2.5l-2.475-4.064l2.782,3.86l-0.73-4.701l1.095,4.632L76.128,81.428z" fill="#4d3623" stroke="#2e1b0c" stroke-width="0.5" opacity="1"></path><path id="SvgjsPath3487" d="M78.188 87c0 1.761-1.428 3.187-3.188 3.187S71.813 88.76 71.813 87c0-1.76 1.428-3.188 3.188-3.188S78.188 85.239 78.188 87z" fill="#000000" stroke-width="none" opacity="0.9"></path><path id="SvgjsPath3488" d="M71.653 93.108c-0.469 0.469-1.396 0.304-2.069-0.37 -0.674-0.673-0.84-1.6-0.37-2.069 0.469-0.469 1.396-0.304 2.069 0.37S72.123 92.638 71.653 93.108z" fill="#ffffff" stroke-width="none" opacity="0.7"></path><path id="SvgjsPath3489" d="M81.809 85.326c-0.702 0.703-2.404 0.142-3.8-1.255 -1.396-1.396-1.958-3.097-1.255-3.8 0.703-0.703 2.404-0.142 3.8 1.255C81.95 82.922 82.511 84.624 81.809 85.326z" fill="#ffffff" stroke-width="none" opacity="0.9"></path></g></g></g><g id="svga-group-eyesfront-left"><path id="SvgjsPath3450" d="M56 88c0 13.808 8.06 24.999 18 24.999S92 101.808 92 88c0-13.809-8.06-25.001-18-25.001S56 74.191 56 88zM61.305 83.109c9.995-5.749 17.37-4.63 25.624 3.237 0.161 0.571 0.257 1.157 0.257 1.758 0 1.481-0.523 2.881-1.44 4.135 -4.077 0.038-16.966 0.706-18.935-0.303C63.998 90.496 61.487 84.568 61.305 83.109z" fill="#b36a33" stroke-width="none" opacity="1" stroke="none"></path><path id="SvgjsPath3451" d="M61.409 83.595c0.522 1.979 2.833 7.026 5.401 8.342 1.969 1.009 14.857 0.341 18.935 0.303 0.917-1.253 1.44-2.653 1.44-4.135 0-0.601-0.096-1.187-0.257-1.758 -8.166-7.784-15.476-8.95-25.31-3.407 1.968-5.724 8.522-9.952 16.34-9.987 9.393-0.04 17.018 5.981 17.041 13.451 0.023 7.469-7.572 13.554-16.961 13.596 -9.393 0.04-17.016-5.981-17.039-13.45C60.997 85.534 61.146 84.547 61.409 83.595z" fill="url(#SvgjsRadialGradient3452)" opacity="1"></path><path id="SvgjsPath3456" d="M66.811 91.937c-2.813-1.441-5.323-7.369-5.506-8.827 9.995-5.749 17.37-4.63 25.624 3.237 0.161 0.571 0.257 1.157 0.257 1.758 0 1.481-0.523 2.881-1.44 4.135C81.668 92.277 68.779 92.945 66.811 91.937z" fill="url(#SvgjsRadialGradient3457)" opacity="1"></path><path id="SvgjsPath3460" d="M61.338 79.989c3.414-1.34 14.297-4.254 19.581-1.339C73.348 76.293 65.782 78.817 61.338 79.989zM83.487 80.982c1.651 0.614 2.711 1.961 3.462 3.018C85.852 82.836 84.318 81.606 83.487 80.982z" fill="#853900" stroke-width="none" opacity="1" stroke="none"></path><path id="SvgjsPath3461" d="M84.061 80.665C75.721 78 69.195 78.032 60.873 81.46c-3.914 0.541-5.456 0.196-7.438-0.252 1.121 0.955 2.072 1.884 4.313 2.033 -1.188 0.298-1.629 0.301-2.938 0.361 1.983 0.619 3.232 1.038 5.29 1.375 -0.863 0.409-2.028 0.538-3.103 0.438 0.925 0.726 2.301 0.661 3.688 1.124 3.867 5.08 4.676 6.192 5.875 6.251 10.059 0.608 16.311-0.248 20.313-0.813 -1.499-0.19-17.826 0.781-20.063-0.313 -2.813-1.375-5.323-7.031-5.506-8.423 10.251-5.626 17.743-4.379 26.256 3.659 -1.948-2.957-4.397-4.875-7.75-6.485L84.061 80.665z" fill="#000000" stroke-width="none" opacity="1" stroke="none"></path></g></g><g id="svga-group-eyes-right" ><g id="svga-group-eyesback-right"><path id="SvgjsPath3433" d="M113.071 86.347c-0.161 0.571-0.257 1.157-0.257 1.758 0 1.481 0.523 2.881 1.44 4.135 4.077 0.038 16.966 0.706 18.935-0.303 2.813-1.441 5.323-7.369 5.506-8.827C128.7 77.36 121.325 78.479 113.071 86.347z" fill="url(#SvgjsRadialGradient3434)" opacity="1"></path></g><g id="svga-group-eyesiriswrapper-right" transform="translate(0 0.5)"><g id="svga-group-eyesiriscontrol-right" ><g id="svga-group-eyesiris-right" ><path id="SvgjsPath3490" d="M133.5 87.001c0 4.692-3.806 8.498-8.5 8.498s-8.5-3.806-8.5-8.498c0-4.697 3.806-8.502 8.5-8.502S133.5 82.304 133.5 87.001z" fill="#4d3623" stroke="#1f1105" stroke-width="0.5" opacity="1"></path><path id="SvgjsPath3491" d="M120.059 90.974c1.24-0.103 0.142-0.434 0.142-0.434 -0.613-0.33-1.768-0.838-1.768-1.305 0-1.461 2.002-1.84-0.048-2.416 -2.131-1.956 1.652-1.915 1.625-1.981 -1.382-3.366 0.423-1.518 1.182-2.512 2.816-3.682 0.785 0.378 2.314 0 0.555-0.136-1.104-2.169 0.048-1.884 0.763 0.186 0.938 0.821 0.938 0.821 0.557-0.109 1.428-0.966 1.428-0.966 1.061 0.32 1.806 1.828 1.478 1.546 0.521-0.063 1.252-0.313 1.821-0.483 0 0 0.1-0.338 0.196-0.046 1.3 3.77 4.652 3.499 0.791 4.589 0 0-0.249 0 0.542 0.627 3.84 3.065-2.978 2.117 0.638 3.527 0.148-0.147-2.167 1.367-2.167 1.786 0 0.711-1.477 2.576-2.757 1.842 -0.714-0.409-0.822 0.85-1.243 0.269 -0.823-1.138-2.468-0.049-1.859-1.095 0.898-0.737-0.926 0.288-1.28 0.288 -1.172 0 1.534-3.942 5.516-1.013 1.165 0.854-1.225-2.029 0.886-2.029 0.212 0.069 0.148-0.739 0.148-0.967 -1.097-0.214 1.97-0.004 1.97-1.787 0.193 0.038 0.721-0.496-2.316 0 0 0-0.097-1.064-0.048-1.256 0.156-0.619 1.721-0.422 1.28-1.063 -0.001-0.001-1.133-2.271-1.133-2.271 -3.645-0.587-1.562-0.953-3.84-0.483 -0.108 0.535-4.881 2.811-4.729 3.866 0.142 0.994 2.996 1.328 0.295 3.092C124.157 96.989 117.118 89.06 120.059 90.974z" fill="#5c4633" stroke-width="none" opacity="1" stroke="none"></path><path id="SvgjsPath3492" d="M125,79.562l0.242,6.222l2.604-5.656l-2.158,5.84l4.571-4.228l-4.229,4.57l5.842-2.157l-5.655,2.604l6.222,0.242l-6.222,0.242l5.655,2.604l-5.842-2.157l4.229,4.57l-4.571-4.228l2.158,5.84l-2.604-5.656L125,94.437l-0.242-6.222l-2.605,5.656l2.157-5.84l-4.57,4.228l4.229-4.57l-5.842,2.157l5.654-2.604l-6.219-0.242l6.219-0.242l-5.654-2.604l5.842,2.157l-4.229-4.57l4.57,4.228l-2.157-5.84l2.605,5.656L125,79.562z" fill="#4d3623" stroke="#3e2816" stroke-width="0.5" opacity="1"></path><path id="SvgjsPath3493" d="M126.128,81.428l-0.764,4.697l2.808-3.841l-2.501,4.047l4.064-2.475l-3.859,2.782l4.702-0.73l-4.632,1.093l4.626,1.125l-4.699-0.762l3.843,2.808l-4.05-2.5l2.476,4.063l-2.783-3.86l0.73,4.702l-1.092-4.632l-1.126,4.625l0.764-4.697l-2.812,3.841l2.505-4.047l-4.065,2.475l3.86-2.782l-4.702,0.73l4.631-1.094l-4.624-1.124l4.696,0.761l-3.842-2.808l4.05,2.501l-2.476-4.063l2.782,3.86l-0.73-4.702l1.095,4.632L126.128,81.428z" fill="#4d3623" stroke="#2e1b0c" stroke-width="0.5" opacity="1"></path><path id="SvgjsPath3494" d="M128.188 87c0 1.761-1.428 3.187-3.188 3.187s-3.188-1.426-3.188-3.187c0-1.76 1.428-3.188 3.188-3.188S128.188 85.239 128.188 87z" fill="#000000" stroke-width="none" opacity="0.9"></path><path id="SvgjsPath3495" d="M121.653 93.108c-0.47 0.469-1.396 0.304-2.069-0.369 -0.674-0.673-0.84-1.601-0.369-2.07 0.469-0.47 1.395-0.304 2.068 0.369C121.956 91.712 122.122 92.639 121.653 93.108z" fill="#ffffff" stroke-width="none" opacity="0.7"></path><path id="SvgjsPath3496" d="M131.809 85.326c-0.702 0.703-2.403 0.142-3.8-1.254 -1.396-1.396-1.957-3.098-1.256-3.8 0.703-0.703 2.405-0.142 3.8 1.254C131.949 82.922 132.512 84.624 131.809 85.326z" fill="#ffffff" stroke-width="none" opacity="0.9"></path></g></g></g><g id="svga-group-eyesfront-right"><path id="SvgjsPath3471" d="M126 62.999c-9.94 0-18 11.193-18 25.001 0 13.808 8.06 24.999 18 24.999S144 101.808 144 88C144 74.191 135.94 62.999 126 62.999zM133.189 91.937c-1.969 1.009-14.857 0.341-18.935 0.303 -0.917-1.253-1.44-2.653-1.44-4.135 0-0.601 0.096-1.187 0.257-1.758 8.254-7.868 15.629-8.986 25.624-3.237C138.513 84.568 136.002 90.496 133.189 91.937z" fill="#b36a33" stroke-width="none" opacity="1" stroke="none"></path><path id="SvgjsPath3472" d="M138.591 83.595c-0.522 1.979-2.833 7.026-5.401 8.342 -1.969 1.009-14.857 0.341-18.935 0.303 -0.917-1.253-1.44-2.653-1.44-4.135 0-0.601 0.096-1.187 0.257-1.758 8.166-7.784 15.476-8.95 25.31-3.407 -1.968-5.724-8.522-9.952-16.34-9.987 -9.393-0.04-17.018 5.981-17.041 13.451 -0.023 7.469 7.572 13.554 16.961 13.596 9.393 0.04 17.016-5.981 17.039-13.45C139.003 85.534 138.854 84.547 138.591 83.595z" fill="url(#SvgjsRadialGradient3473)" opacity="1"></path><path id="SvgjsPath3477" d="M133.189 91.937c2.813-1.441 5.323-7.369 5.506-8.827 -9.995-5.749-17.37-4.63-25.624 3.237 -0.161 0.571-0.257 1.157-0.257 1.758 0 1.481 0.523 2.881 1.44 4.135C118.332 92.277 131.221 92.945 133.189 91.937z" fill="url(#SvgjsRadialGradient3478)" opacity="1"></path><path id="SvgjsPath3481" d="M119.081 78.65c5.284-2.915 16.167-0.001 19.581 1.339C134.218 78.817 126.652 76.293 119.081 78.65zM113.051 84c0.751-1.057 1.811-2.404 3.462-3.018C115.682 81.606 114.148 82.836 113.051 84z" fill="#853900" stroke-width="none" opacity="1" stroke="none"></path><path id="SvgjsPath3482" d="M115.939 80.665c8.34-2.665 14.865-2.633 23.188 0.795 3.914 0.541 5.456 0.196 7.438-0.252 -1.121 0.955-2.072 1.884-4.313 2.033 1.188 0.298 1.629 0.301 2.938 0.361 -1.983 0.619-3.232 1.038-5.29 1.375 0.863 0.409 2.028 0.538 3.103 0.438 -0.925 0.726-2.301 0.661-3.688 1.124 -3.867 5.08-4.676 6.192-5.875 6.251 -10.059 0.608-16.311-0.248-20.313-0.813 1.499-0.19 17.826 0.781 20.063-0.313 2.813-1.375 5.323-7.031 5.506-8.423 -10.251-5.626-17.743-4.379-26.256 3.659 1.948-2.957 4.397-4.875 7.75-6.485L115.939 80.665z" fill="#000000" stroke-width="none" opacity="1" stroke="none"></path></g></g><g id="svga-group-facehighlight-single" ><path id="SvgjsPath2753" d="M140.204 113.007c0.035 22.275-17.995 40.365-40.273 40.396 -22.274 0.036-40.361-17.993-40.396-40.272C59.501 90.857 77.53 72.77 99.808 72.735 122.083 72.701 140.171 90.73 140.204 113.007z" fill="url(#SvgjsRadialGradient2754)" opacity="1"></path><path id="SvgjsPath2757" d="M135,55.999c0,19.329-15.671,35-35,35c-19.329,0-35-15.671-35-35s15.671-35,35-35C119.329,20.999,135,36.67,135,55.999z" fill="url(#SvgjsRadialGradient2758)" opacity="1"></path></g><g id="svga-group-eyebrows-left" ><path id="SvgjsPath3285" d="M54 73.189c9.954-9.974 16.761-4.714 30.589-2.063 0.845 0.162 6.32 0.337 5.31 2.268 -0.483 0.924-2.036 0.814-2.903 0.798C73.308 73.936 66.652 64.197 54 73.189z" fill="#2a232b" stroke-width="none" opacity="1"></path></g><g id="svga-group-eyebrows-right" ><path id="SvgjsPath3286" d="M144.519 73.494c-12.071-9.095-19.137 0.037-31.727 0.388 -4.076 0.116-3.813-2.101-2.078-2.451 2.014-0.407 2.563 0.033 8.451-1.382C130.507 67.324 136.346 64.828 144.519 73.494z" fill="#2a232b" stroke-width="none" opacity="1"></path></g><g id="svga-group-nose-single" ><path id="SvgjsPath2956" d="M96.831 85.761c0 0-1.399 11.117-2.026 13.281 -1.379 4.752-6.168 11.418-5.239 14.43 1.859 6.022 7.537 4.493 10.524 4.471 2.763-0.022 8.072 1.552 9.162-2.37 0.352-1.266-0.441-4.466-0.441-4.466s-2.644 3.112-8.875 2.767c-1.778-0.099-4.671-2.096-4.704-4.912 -0.043-3.817 1.802-7.036 2.205-10.825C97.741 95.259 96.831 85.761 96.831 85.761z" fill="#a4581e" stroke-width="none" opacity="1"></path><path id="SvgjsPath2957" d="M105.194 116.207c1.075 0 1.366 0.326 1.366 0.729 0 0.404-0.335 1.026-1.366 0.73 -1.134-0.323-3.113-0.175-3.113-0.175S104.117 116.207 105.194 116.207zM94.922 116.207c-1.077 0.001-1.366 0.328-1.366 0.733 -0.001 0.403 0.323 0.983 1.366 0.729 1.15-0.282 3.112-0.175 3.112-0.175S95.999 116.211 94.922 116.207zM108.81 111.107c0 0 1.489 1.933 1.18 3.975 -0.301 1.983-3.31 2.861-3.31 2.861s2.089-1.516 2.342-3.356C109.14 113.725 108.81 111.107 108.81 111.107zM90.427 109.121c0 0-1.086 2.704-0.772 4.352 0.571 2.976 3.704 4.164 3.704 4.164s-1.955-2.039-2.65-3.842C89.948 111.825 90.427 109.121 90.427 109.121z" fill="#853900" stroke-width="none" opacity="1"></path><path id="SvgjsPath2958" d="M105.141 112.549c1.043-0.889 1.148-1.396 0.932-1.729 -0.215-0.334-0.841-0.545-1.714 0.528 -0.963 1.18-3.056 2.054-3.056 2.054S104.098 113.437 105.141 112.549z" fill="#c27e4b" stroke-width="none" opacity="1"></path></g><g id="svga-group-hair-front" ><path id="SvgjsPath3505" d="M51.396 214.38c-15.723-25.105-21.321-14.91-17.672-42.457 -5.209-9.411-9.375-18.77-12.191-28.824 -5.598-21.481 0.132-35.265 5.142-50.948C21.889 26.813 59.341-9.001 100.71-9.001c32.28 0 67.16 23.47 67.471 75.221 -0.514 9.459-1.932 25.343-3.003 32.165 17.769 55.029 2.501 50.649-11.07 76.357 -3.681 6.968-8.012 17.267-8.919 27.573 -18.66-33.246-16.96-38.325-10.676-53.39 7.504-17.985 4.547-4.07-10.03-2.422 13.563-10.49 22.717-10.462 23.003-75.823 0.001-0.039-0.021-0.075-0.054-0.091 -12.352-5.881-24.037-17.006-31.256-29.76 -0.018-0.031-0.047-0.05-0.082-0.05 -0.001 0-0.003 0-0.003 0 -0.037 0.001-0.07 0.023-0.085 0.057 -8.335 17.787-22.626 27.374-46.336 31.084 -4.629 2.417-9.738 4.666-16.104 7.085 -0.037 0.014-0.063 0.051-0.063 0.092 -0.428 25.658 5.466 43.881 20.327 65.193 -7.085-3.254-12.746-12.711-12.746-12.711 -0.355 0 2.484 4.965 2.662 5.281C83.555 172.154 51.627 183.483 51.396 214.38z" fill="#2a232b" stroke-width="none" opacity="0.1"></path><path id="SvgjsPath3506" d="M50.101 212.286c-16.177-25.105-21.937-14.91-18.182-42.457 -5.36-9.411-9.647-18.77-12.543-28.824 -5.76-21.481 0.135-35.265 5.29-50.948C19.741 24.72 58.275-11.095 100.841-11.095c33.21 0 69.099 23.47 69.419 75.221 -0.527 9.459-1.984 25.343-3.089 32.165 18.283 55.029 2.573 50.649-11.39 76.357 -3.789 6.968-8.242 17.267-9.175 27.573 -19.202-33.246-17.451-38.325-10.984-53.39 7.718-17.985 2.953-4.116-10.321-1.223 13.954-10.49 23.373-11.661 23.668-77.022 0.001-0.039-0.022-0.075-0.058-0.091 -12.709-5.881-24.729-17.006-32.156-29.76 -0.018-0.031-0.051-0.05-0.086-0.05 -0.001 0-0.003 0-0.004 0 -0.037 0.001-0.07 0.023-0.086 0.057 -8.577 17.787-23.281 27.374-47.675 31.084 -4.764 2.417-10.02 4.666-16.569 7.085 -0.039 0.014-0.064 0.051-0.065 0.092 -0.441 25.657 5.624 44.881 20.914 66.193 -7.322-5.419-13.113-13.711-13.113-13.711 -0.366 0 2.556 4.965 2.738 5.281C83.189 170.061 50.338 181.39 50.101 212.286z" fill="#2a232b" stroke-width="none" opacity="1"></path><path id="SvgjsPath3507" d="M27.34 109.853c-0.751-7.729-12.676-57.451 16.781-93.862C30.129 43.148 26.056 79.801 27.34 109.853zM167.521 94.041c4.414-30.432 5.609-63.063-19.443-86.74C160.453 31.492 169.091 49.191 167.521 94.041zM143.14 22.856c-2.382 11.089 1.711 25.652 3.052 35.713C139.202 52.934 135.036 45 130.23 33.973c1.055 6.228 3.485 17.428 16.972 31.263 -21.798-19.468-26.475-29.291-22.914-52.455 -0.198 0.877-0.389 1.705-0.573 2.49C124.192 12.729 124.628 9.983 125 7c-3.201 18-27.117 50.049-47.061 56.902 -3.01 3.013-5.737 3.154-8.993 5.917 27.231-4.152 44.396-19.706 48.078-30.866 7.436 12.238 20.931 23.546 33.167 29.331C152.039 52.092 146.191 42.142 143.14 22.856zM101.536 23.569c-9 15-14.354 24.5-28.354 33.5 4.545-3.637 7.687-9.667 9.531-14.927C77.203 50.297 68.565 55.381 61 62c7.516-8.268 17.645-19.858 24.036-30.931 -6.442 8.582-16.813 15.337-26.036 23 7.256-6.029 13-13.667 17-21.667 -2.775 3.7-7.862 6.459-14 12.598 8.972-11.966 9.88-17.484 12.419-22.405 -6.216 10.474-11.655 14.106-17.794 19.295 -4.221 17.702-4.461 25.388-5.256 35.113 -0.039 0.469 17.113-6.963 17.535-7.177 0.014-0.002 0.028-0.005 0.042-0.007C84.938 56.249 91.502 42.094 101.536 23.569zM60 137c2.788 11.151 1.226 21.095-2.464 32.735 -0.488-10.761-8.475-21.806-14.417-31.462 1.364 20.726 3.566 30.364 0.083 46.129 -1.866-28.597-7.833-38.269-16.583-59.417 -3.527 13.393-2.659 30.866 5.299 44.844 -3.755 27.547 2.005 17.352 18.182 42.457 0.238-30.896 33.088-42.226 12.707-77.52 -0.183-0.316-3.104-5.281-2.738-5.281 0 0 5.792 8.292 13.113 13.711 -22.233-24.211-28.063-54.711-28.7-87.711C39.495 95.233 54 117 60 137zM169.126 101.456c0.865 16.928 5.439 38.169-9.257 51.947 6-10 3.131-23.403 0.131-33.403 0.376 26.762-10.812 42.834-13.809 60.402 -0.456-8.086-2.304-17.859 1.473-31.015 -3.663 6.402-7.795 13.848-9.388 22.723 -5.241-9.827-2.367-17.266-0.533-26.834 7.778-8.19 13.157-23.839 14.294-33.894 -0.935 8.266-6.287 20.703-12.478 25.897 -0.001 0.009-0.536 1.809-1.124 3.782 0.044-0.333 0.086-0.668 0.125-1.008 -8.928 21.01-13.345 23.131 8.046 60.166 0.845-9.357 4.724-19.388 9.175-27.573C169.236 147.874 184.401 150.477 169.126 101.456z" fill="#1b141c" stroke-width="none" opacity="1"></path><path id="SvgjsPath3508" d="M155.339 79.777c4.269-17.414-2.295-44.215-5.664-49.444C154.928 38.481 161.974 60.465 155.339 79.777zM159.441 87.699c0.458-2.363 14.095-28.735-8.994-65.914C171.332 59.802 159.905 85.303 159.441 87.699zM34.086 55.382c1-0.447 7.361-47.259 48.429-56.088C39.446 6.883 35.086 54.937 34.086 55.382zM39.756 99.767c-0.024-1.003-8.152-47.383 14.691-77.104C27.996 53.967 39.732 98.767 39.756 99.767zM43.013 131.156c-1.428-1.897-13.106-33.317-7.671-69.134C25.286 99.584 42.261 130.156 43.013 131.156zM153.395 30.807c-1-0.295-13.057-35.017-37.847-31.593C137.232-2.015 152.395 30.509 153.395 30.807zM132.763 48.797c0 0-9.419-14.771-6.004-39.082C123.607 24.555 123.938 34.813 132.763 48.797zM135.424 37.302c2.568 7.16 8.104 14.888 9.026 15.499 -1.001-0.663-9.66-13.341-11.684-34.227C132.946 24.843 133.284 31.334 135.424 37.302zM88.142 57.415c7.993-7.77 25.836-15.403 35.973-52.374C113.238 39.193 96.597 49.196 88.142 57.415zM88.167 27.009c6.991-6.677 9.494-13.522 9.407-19.946C96.858 13.51 93.367 22.043 88.167 27.009zM78.146 30.338c0.377-0.013 1.333-1.137 1.603-1.373 7.977-6.959 11.625-12.581 12.388-22.236C90.966 17.738 79.148 30.304 78.146 30.338zM76.803 28.359c0 0 8.23-9.662 11.186-23.308C84.859 15.938 76.803 28.359 76.803 28.359zM56.403 153.735c0.581-1 1.925-20.274-7.62-28.24C54.788 131.589 56.983 152.734 56.403 153.735zM56.42 153.725c-0.46-7.765-7.55-13.918-8.99-23.647C47.966 142.486 55.625 146.906 56.42 153.725zM41.095 160.402c-0.959-2.241 3.723-12.528-10.313-34.283C42.215 146.698 40.633 159.322 41.095 160.402zM41.115 159.081c-1.186-4.379 0.906-13.748-4.325-28.989C39.524 140.203 39.581 153.409 41.115 159.081zM150.024 131.289c-4.108 8.074-12.523 13.667-10.338 33.775 -0.201-1.853 0.16-3.941 0.305-5.79 1.957-24.953 8.672-5.729 16.046-52.242C154.253 114.17 152.895 125.648 150.024 131.289zM147.729 167.729c0.371-1.456 0.345-3.097 0.603-4.586 2.182-12.614 6.991-19.381 7.411-39.744C154.781 139.88 147.521 153.505 147.729 167.729zM165.107 141.027c0.469-3.128 6.825-7.942 1.996-32.945C169.849 133.741 165.568 137.951 165.107 141.027zM165.108 141.058c0.438-1 3.109-17.928-3.651-30.616C166.176 120.715 165.547 140.058 165.108 141.058z" fill="#3a353a" stroke-width="none" opacity="1"></path><path id="SvgjsPath3509" d="M18.901 151.753c0.248-2.574 0.649-5.177 1.238-7.817 2.5 7.838 5.503 15.074 11.68 25.88 -3.773 27.679 2.116 17.422 18.38 42.81 0-22.267 17.058-34.558 19.03-51.87 1.784-15.764-4.759-22.359-9.16-31.17 3.666 5.108 8.469 10.416 13.56 14.061 -14.507-20.062-21.735-38.961-21.26-66.64 5.63-2.08 11.2-4.36 16.55-7.08 21.469-3.266 38.274-11.49 47.75-31.14 7.314 12.562 19.169 23.77 32.2 29.8 -0.298 65.876-9.77 66.413-23.98 77.209 5.811-1.109 12.751-5.729 14.311-7.93 -9.068 23.75-15.193 23.472 7.479 62.68 0.796-9.556 4.586-19.383 9.19-27.85 13.917-25.626 29.741-22.284 11.45-77.29 1.544-9.539 2.827-18.686 3-27.83 0.175 3.245 0.276 6.377 0.367 9.425 0.214 0 0.428 0 0.641 0 -0.257-4.086-0.525-8.347-0.968-12.875 -0.657-106.408-155.465-102.179-145.79 25.9 -5.227 15.913-11.063 29.484-5.29 50.95 -0.926 3.002-1.626 5.909-2.137 8.749C17.674 150.456 18.233 151.159 18.901 151.753zM24.959 94.285c0.095 1 3.72 27.654 1.32 8.13C8.536-41.931 192.536-51.931 166.139 101.896c-1.794 10.454-0.768 5.549 0.961-5.12 17.259 58.25-3.75 45.563-18.32 87.37 -1.37 3.939-2.34 9-2.74 13.13 -21.623-38.089-11.207-41.533-5.64-60.7 6.599-7.292 10.615-15.871 11.71-26.52 -2.591 17.989-14.384 30.05-24.181 34.06 5.116-3.371 10.438-6.975 13.601-12.39 2.034-2.136 11.762-26.173 8.12-72.03 -1.673-20.141-8.437-26.107-6.931-34.66 -1.396 6.717 2.429 11.257 4.71 25.08 1.055 6.458 1.431 15.847 1.431 17.57 -10.923-5.965-24.91-18.89-31.76-29.79 4.461-9.145 6.782-23.075 8.6-31.87 -5.416 22.088-9.213 52.515-53.76 62.3 7.232-3.953 22.987-12.243 39.25-45.36 0.02-0.01 0.029-0.02 0.029-0.04 8.711-17.095 0.602-2.034-0.09-0.8 -0.013-0.026-0.01-0.103-0.01 0.01 -20.156 36.093-36.387 45.333-58.75 54.6 0.01-0.68 0.02-1.36 0.05-2.04 27.481-8.941 44.618-41.674 39.07-33.58 -8.877 13.02-24.155 28.015-39.06 33.34 0.017-1 0.183-4.32 0.46-7.14 19.215-13.644 23.448-20.838 30.89-33.8 0.556-0.979 1.037-1.813 1.454-2.526C80.75 37.814 68.93 54.19 52.939 66.715c0.44-4.62 1.1-9.22 1.89-13.79 0.921-1.218 8.834-7.552 15.32-20.74 3.094-6.249 4.27-9.59 4.27-9.59 -0.871 1.578-6.035 13.404-19.31 28.78 2.19-12.138 5.188-23.076 8.57-35.03 -5.756 17.895-11.357 37.272-13.01 56.8 -0.488 1-1.416 37.987 17.235 63.969 -28.77-30.95-24.066-68.987-23.885-81.719 -0.09 0-0.75 10.35-0.8 11.05 -3.867 51.415 25.597 63.853 24 90.61 -1.172 19.548-17.347 30.422-17.49 53.89 -12.637-21.956-19.809-15.55-16.85-39.3 0.077-1 1.134-8.253 0.08-15.33 -1.696-11.256-4.121-14.498-3.766-16.86 -0.269 1.428 0.351 2.886 1.417 6.7 1.909 6.668 2.163 15.704 1.33 22.73C15.417 136.337 17.729 119.042 24.959 94.285z" fill="#000000" stroke-width="none" opacity="1"></path></g><g id="svga-group-glasses-single" ><path id="SvgjsPath3305" d="M143.62 100.1c-2.36 2.2-6.23 3.04-13.56 3.04 -9.78 0-16.18-1.09-20.41-9.51 -3.29-6.54-4.62-13.56-3.02-15.98 2.21-3.34 8.57-5.61 15.67-6.28C134.63 77.23 143.29 88.98 143.62 100.1zM72.01 71.17c-7.64 0.21-15.09 2.35-18.27 7.05 -2.18 3.21-1.69 12.55-0.22 16.94 2 5.99 5.07 7.98 16.42 7.98 9.78 0 16.18-1.09 20.41-9.51 0.42-0.84 0.81-1.69 1.17-2.54C88.29 82.95 81.16 75.43 72.01 71.17z" fill="#ffffff" stroke-width="none" opacity="0.2"></path><path id="SvgjsPath3306" d="M146.48 95.17c-0.71 2.12-1.56 3.73-2.86 4.94 -0.33-11.12-8.99-22.87-21.33-28.74 9.37-0.89 19.99 0.99 23.97 6.86C148.44 81.44 147.95 90.77 146.48 95.17zM93.38 77.65c-2.79-4.23-12.22-6.73-21.37-6.47 9.16 4.25 16.28 11.77 19.52 19.92C93.94 85.36 94.77 79.76 93.38 77.65z" fill="#ffffff" stroke-width="none" opacity="0.4"></path><path id="SvgjsPath3307" d="M151.79 73.61c-10.18-5.46-36.14-7.01-45.5 0.15 -0.8 0.47-4.23-0.53-6.29-0.53 -1.95 0-5.42 1.05-6.29 0.53 -9.36-7.16-35.32-5.61-45.5-0.15 -1.46 0.79-1.62 4.51-0.35 5.08 0.91 0.41 1.51 0.98 1.46 1.98C49 86.29 50.55 93.59 51.23 95.6c0.87 2.59 2.44 7.41 9.29 8.6 5.83 1.01 16.43 1.48 21.94-0.17 9.99-2.98 14.24-18.04 14.42-23.17l0.01 0.02c0.4-1.8 5.82-1.8 6.23 0l0.01-0.02c0.17 5.13 4.43 20.19 14.42 23.17 5.51 1.65 16.11 1.18 21.94 0.17 6.85-1.19 8.42-6.01 9.29-8.6 0.68-2.02 2.23-9.31 1.92-14.93 -0.05-1 0.56-1.57 1.46-1.98C153.41 78.12 153.25 74.4 151.79 73.61zM81.41 101.36c-5.06 1.51-14.32 1.61-19.71 0.67 -4.54-0.79-6.44-3.26-7.7-7.03 -1.48-4.4-1.87-13.51 0.16-16.5 6.76-9.98 33.87-8.05 38.8-0.58C95.16 81.27 90.89 98.53 81.41 101.36zM146 95.01c-1.26 3.77-3.17 6.24-7.7 7.03 -5.39 0.94-14.65 0.84-19.71-0.67 -9.48-2.83-13.75-20.09-11.55-23.44 4.93-7.47 32.04-9.4 38.8 0.58C147.87 81.49 147.48 90.61 146 95.01z" fill="#4d1f1f" stroke-width="none" opacity="1" stroke="none"></path><path id="SvgjsPath3308" d="M118.58 101.32c2.79 0.83 6.86 1.24 10.85 1.27 -12.54 1.22-15.39-3.4-17.12-5.16 -3.52-3.59-5.69-8.95-5.85-16.65C106.49 86.86 110.76 98.99 118.58 101.32zM93.69 73.72c-9.36-7.16-35.32-5.62-45.5-0.15C71.43 67.05 84.93 70.42 93.69 73.72zM61.68 102c-4.54-0.79-6.44-3.26-7.7-7.03 -1.32-3.93-1.77-11.62-0.4-15.35 -1.83 4.22-1.12 12.39 0.26 16.5 1.6 4.8 4.54 7.18 17.34 6.46C67.71 102.65 64.25 102.44 61.68 102zM152.97 76.3c-0.04-1.13-0.45-2.32-1.2-2.73 -9.98-5.36-35.14-6.94-44.93-0.25C120 68.05 138.97 67.31 152.97 76.3z" fill="#5c2e2e" stroke-width="none" opacity="1" stroke="none"></path></g></g></g><rect id="SvgjsRect1033" width="200" height="15" x="0" y="185" fill="#ecf0f1" opacity="0.5" style="display:none;"></rect><text id="SvgjsText1034" font-family="&quot;Roboto&quot;, &quot;Helvetica Neue&quot;, Helvetica, Arial, sans-serif" style="font-size:0.84em;font-family:&quot;Roboto&quot;, &quot;Helvetica Neue&quot;, Helvetica, Arial, sans-serif;text-anchor:middle;font-weight:400;display:none;" font-size="0.84em" text-anchor="middle" font-weight="400" fill="#000000" x="100" y="185"><tspan id="SvgjsTspan1035" dy="1.2em" x="100" style="font-size:0.84em;font-family:&quot;Roboto&quot;, &quot;Helvetica Neue&quot;, Helvetica, Arial, sans-serif;text-anchor:middle;font-weight:400;">www.creartuavatar.com</tspan></text></g><defs id="SvgjsDefs1001"><radialGradient id="SvgjsRadialGradient2754" cx="100" cy="113" r="40" gradientUnits="userSpaceOnUse" class="svga-on-canvas-facehighlight-gradient-single-0"><stop id="SvgjsStop2755" stop-opacity="0.5" stop-color="#c27e4b" offset="0" ></stop><stop id="SvgjsStop2756" stop-opacity="0" stop-color="#b36a33" offset="0.9" ></stop></radialGradient><radialGradient id="SvgjsRadialGradient2758" cx="100" cy="57" r="36" gradientUnits="userSpaceOnUse" class="svga-on-canvas-facehighlight-gradient-single-1"><stop id="SvgjsStop2759" stop-opacity="0.5" stop-color="#c27e4b" offset="0" ></stop><stop id="SvgjsStop2760" stop-opacity="0" stop-color="#b36a33" offset="0.9" ></stop></radialGradient><linearGradient id="SvgjsLinearGradient2918" x1="99.98" y1="171.27" x2="99.98" y2="136.351" gradientUnits="userSpaceOnUse" class="svga-on-canvas-chinshadow-gradient-single-0"><stop id="SvgjsStop2919" stop-opacity="0.8" stop-color="#a4581e" offset="0" ></stop><stop id="SvgjsStop2920" stop-opacity="1" stop-color="#853900" offset="0.7" ></stop></linearGradient><linearGradient id="SvgjsLinearGradient2946" x1="100" y1="141" x2="100" y2="138" gradientUnits="userSpaceOnUse" class="svga-on-canvas-mouth-gradient-single-0"><stop id="SvgjsStop2947" stop-opacity="1" stop-color="#ab6128" offset="0.1" ></stop><stop id="SvgjsStop2948" stop-opacity="1" stop-color="#a4581e" offset="1" ></stop></linearGradient><radialGradient id="SvgjsRadialGradient3215" cx="-558.588" cy="-490.918" r="84.646" gradientTransform="matrix(0.096 -0.0248 0.0245 0.0961 140.5478 120.3577)" gradientUnits="userSpaceOnUse" class="svga-on-canvas-eyesiris-gradient-left-1"><stop id="SvgjsStop3216" stop-opacity="0.8" stop-color="#ffffff" offset="0" ></stop><stop id="SvgjsStop3217" stop-opacity="0" stop-color="#ffffff" offset="1" ></stop></radialGradient><radialGradient id="SvgjsRadialGradient3219" cx="-565.337" cy="-492.691" r="84.644" gradientTransform="matrix(0.0991 8.856325e-004 -0.0011 0.0991 130.3774 136.3533)" gradientUnits="userSpaceOnUse" class="svga-on-canvas-eyesiris-gradient-left-2"><stop id="SvgjsStop3220" stop-opacity="0.8" stop-color="#ffffff" offset="0" ></stop><stop id="SvgjsStop3221" stop-opacity="0" stop-color="#ffffff" offset="1" ></stop></radialGradient><linearGradient id="SvgjsLinearGradient3225" x1="122.283" y1="93.047" x2="123.61" y2="91.466" gradientTransform="matrix(1 0 0 1 -52 0)" gradientUnits="userSpaceOnUse" class="svga-on-canvas-eyesiris-gradient-left-5"><stop id="SvgjsStop3226" stop-opacity="1" stop-color="#ffffff" offset="0" ></stop><stop id="SvgjsStop3227" stop-opacity="0" stop-color="#ffffff" offset="1" ></stop></linearGradient><linearGradient id="SvgjsLinearGradient3229" x1="127" y1="85" x2="125" y2="87" gradientTransform="matrix(1 0 0 1 -50 0)" gradientUnits="userSpaceOnUse" class="svga-on-canvas-eyesiris-gradient-left-6"><stop id="SvgjsStop3230" stop-opacity="1" stop-color="#ffffff" offset="0" ></stop><stop id="SvgjsStop3231" stop-opacity="0" stop-color="#ffffff" offset="1" ></stop></linearGradient><linearGradient id="SvgjsLinearGradient3233" x1="130" y1="81" x2="126" y2="85" gradientTransform="matrix(1 0 0 1 -50 0)" gradientUnits="userSpaceOnUse" class="svga-on-canvas-eyesiris-gradient-left-7"><stop id="SvgjsStop3234" stop-opacity="1" stop-color="#ffffff" offset="0" ></stop><stop id="SvgjsStop3235" stop-opacity="0" stop-color="#ffffff" offset="1" ></stop></linearGradient><radialGradient id="SvgjsRadialGradient3238" cx="-578.76" cy="-490.73" r="84.646" gradientTransform="matrix(0.096 -0.0248 0.0245 0.0961 192.4794 119.8404)" gradientUnits="userSpaceOnUse" class="svga-on-canvas-eyesiris-gradient-right-1"><stop id="SvgjsStop3239" stop-opacity="0.8" stop-color="#ffffff" offset="0" ></stop><stop id="SvgjsStop3240" stop-opacity="0" stop-color="#ffffff" offset="1" ></stop></radialGradient><radialGradient id="SvgjsRadialGradient3242" cx="-584.778" cy="-487.329" r="84.644" gradientTransform="matrix(0.0991 8.856325e-004 -0.0011 0.0991 182.3104 135.839)" gradientUnits="userSpaceOnUse" class="svga-on-canvas-eyesiris-gradient-right-2"><stop id="SvgjsStop3243" stop-opacity="0.8" stop-color="#ffffff" offset="0" ></stop><stop id="SvgjsStop3244" stop-opacity="0" stop-color="#ffffff" offset="1" ></stop></radialGradient><linearGradient id="SvgjsLinearGradient3248" x1="120.284" y1="93.047" x2="121.611" y2="91.467" gradientUnits="userSpaceOnUse" class="svga-on-canvas-eyesiris-gradient-right-5"><stop id="SvgjsStop3249" stop-opacity="1" stop-color="#ffffff" offset="0" ></stop><stop id="SvgjsStop3250" stop-opacity="0" stop-color="#ffffff" offset="1" ></stop></linearGradient><linearGradient id="SvgjsLinearGradient3252" x1="127" y1="85" x2="125" y2="87" gradientUnits="userSpaceOnUse" class="svga-on-canvas-eyesiris-gradient-right-6"><stop id="SvgjsStop3253" stop-opacity="1" stop-color="#ffffff" offset="0" ></stop><stop id="SvgjsStop3254" stop-opacity="0" stop-color="#ffffff" offset="1" ></stop></linearGradient><linearGradient id="SvgjsLinearGradient3256" x1="130" y1="81" x2="126" y2="85" gradientUnits="userSpaceOnUse" class="svga-on-canvas-eyesiris-gradient-right-7"><stop id="SvgjsStop3257" stop-opacity="1" stop-color="#ffffff" offset="0" ></stop><stop id="SvgjsStop3258" stop-opacity="0" stop-color="#ffffff" offset="1" ></stop></linearGradient><radialGradient id="SvgjsRadialGradient3426" cx="126.485" cy="86.435" r="13.37" gradientTransform="matrix(-1.0172 0 0 1.0172 202.565 -1.469)" gradientUnits="userSpaceOnUse" class="svga-on-canvas-eyesback-gradient-left-0"><stop id="SvgjsStop3427" stop-opacity="1" stop-color="#ffffff" offset="0" ></stop><stop id="SvgjsStop3428" stop-opacity="1" stop-color="#fdfefe" offset="0.544" ></stop><stop id="SvgjsStop3429" stop-opacity="1" stop-color="#f6f8f9" offset="0.74" ></stop><stop id="SvgjsStop3430" stop-opacity="1" stop-color="#eaeff2" offset="0.879" ></stop><stop id="SvgjsStop3431" stop-opacity="1" stop-color="#d9e3e8" offset="0.992" ></stop><stop id="SvgjsStop3432" stop-opacity="1" stop-color="#d8e2e7" offset="1" ></stop></radialGradient><radialGradient id="SvgjsRadialGradient3434" cx="126.484" cy="86.435" r="13.371" gradientTransform="matrix(1.0172 0 0 1.0172 -2.565 -1.469)" gradientUnits="userSpaceOnUse" class="svga-on-canvas-eyesback-gradient-right-0"><stop id="SvgjsStop3435" stop-opacity="1" stop-color="#ffffff" offset="0" ></stop><stop id="SvgjsStop3436" stop-opacity="1" stop-color="#fdfefe" offset="0.544" ></stop><stop id="SvgjsStop3437" stop-opacity="1" stop-color="#f6f8f9" offset="0.74" ></stop><stop id="SvgjsStop3438" stop-opacity="1" stop-color="#eaeff2" offset="0.879" ></stop><stop id="SvgjsStop3439" stop-opacity="1" stop-color="#d9e3e8" offset="0.992" ></stop><stop id="SvgjsStop3440" stop-opacity="1" stop-color="#d8e2e7" offset="1" ></stop></radialGradient><radialGradient id="SvgjsRadialGradient3442" cx="126.485" cy="86.435" r="13.37" gradientTransform="matrix(-1.0172 0 0 1.0172 202.565 -1.469)" gradientUnits="userSpaceOnUse" class="svga-on-canvas-eyesfront-gradient-left-0"><stop id="SvgjsStop3443" stop-opacity="1" stop-color="#ffffff" offset="0" ></stop><stop id="SvgjsStop3444" stop-opacity="1" stop-color="#fdfefe" offset="0.544" ></stop><stop id="SvgjsStop3445" stop-opacity="1" stop-color="#f6f8f9" offset="0.74" ></stop><stop id="SvgjsStop3446" stop-opacity="1" stop-color="#eaeff2" offset="0.879" ></stop><stop id="SvgjsStop3447" stop-opacity="1" stop-color="#d9e3e8" offset="0.992" ></stop><stop id="SvgjsStop3448" stop-opacity="1" stop-color="#d8e2e7" offset="1" ></stop></radialGradient><radialGradient id="SvgjsRadialGradient3452" cx="121.915" cy="85.945" fx="133.772" fy="85.978" r="16.863" gradientTransform="matrix(0.9998 0.0208 0.0166 -0.7998 -45.2343 152.149)" gradientUnits="userSpaceOnUse" class="svga-on-canvas-eyesfront-gradient-left-3"><stop id="SvgjsStop3453" stop-opacity="1" stop-color="#a4581e" offset="0" ></stop><stop id="SvgjsStop3454" stop-opacity="0.3" stop-color="#a4581e" offset="0.7" ></stop><stop id="SvgjsStop3455" stop-opacity="0" stop-color="#b36a33" offset="1" ></stop></radialGradient><radialGradient id="SvgjsRadialGradient3457" cx="72.994" cy="103.619" r="22.097" gradientTransform="matrix(1.0455 -0.0545 0.0548 1.0391 -8.9357 0.7632)" gradientUnits="userSpaceOnUse" class="svga-on-canvas-eyesfront-gradient-left-4"><stop id="SvgjsStop3458" stop-opacity="0" stop-color="#000000" offset="0.95" ></stop><stop id="SvgjsStop3459" stop-opacity="0.3" stop-color="#000000" offset="1" ></stop></radialGradient><radialGradient id="SvgjsRadialGradient3463" cx="126.484" cy="86.435" r="13.371" gradientTransform="matrix(1.0172 0 0 1.0172 -2.565 -1.469)" gradientUnits="userSpaceOnUse" class="svga-on-canvas-eyesfront-gradient-right-0"><stop id="SvgjsStop3464" stop-opacity="1" stop-color="#ffffff" offset="0" ></stop><stop id="SvgjsStop3465" stop-opacity="1" stop-color="#fdfefe" offset="0.544" ></stop><stop id="SvgjsStop3466" stop-opacity="1" stop-color="#f6f8f9" offset="0.74" ></stop><stop id="SvgjsStop3467" stop-opacity="1" stop-color="#eaeff2" offset="0.879" ></stop><stop id="SvgjsStop3468" stop-opacity="1" stop-color="#d9e3e8" offset="0.992" ></stop><stop id="SvgjsStop3469" stop-opacity="1" stop-color="#d8e2e7" offset="1" ></stop></radialGradient><radialGradient id="SvgjsRadialGradient3473" cx="121.915" cy="85.945" fx="133.772" fy="85.978" r="16.863" gradientTransform="matrix(-0.9998 0.0208 -0.0166 -0.7998 245.2343 152.149)" gradientUnits="userSpaceOnUse" class="svga-on-canvas-eyesfront-gradient-right-3"><stop id="SvgjsStop3474" stop-opacity="1" stop-color="#a4581e" offset="0" ></stop><stop id="SvgjsStop3475" stop-opacity="0.3" stop-color="#a4581e" offset="0.7" ></stop><stop id="SvgjsStop3476" stop-opacity="0" stop-color="#b36a33" offset="1" ></stop></radialGradient><radialGradient id="SvgjsRadialGradient3478" cx="72.994" cy="103.619" r="22.097" gradientTransform="matrix(-1.0455 -0.0545 -0.0548 1.0391 208.9357 0.7632)" gradientUnits="userSpaceOnUse" class="svga-on-canvas-eyesfront-gradient-right-4"><stop id="SvgjsStop3479" stop-opacity="0" stop-color="#000000" offset="0.95" ></stop><stop id="SvgjsStop3480" stop-opacity="0.3" stop-color="#000000" offset="1" ></stop></radialGradient><radialGradient id="SvgjsRadialGradient3526" cx="100" cy="100" r="150" gradientUnits="userSpaceOnUse" class="svga-on-canvas-backs-gradient-single-1"><stop id="SvgjsStop3527" stop-opacity="0" stop-color="#ecf0f1" offset="0" ></stop><stop id="SvgjsStop3528" stop-opacity="1" stop-color="#c6dce2" offset="0.2" ></stop><stop id="SvgjsStop3529" stop-opacity="0" stop-color="#c6dce2" offset="1" ></stop></radialGradient></defs></svg>